<svg width="39" height="39" viewBox="0 0 39 39" fill="none" xmlns="http://www.w3.org/2000/svg">
<path d="M19.5 0C30.2696 0 39.0008 8.73042 39.001 19.5C39.001 30.2697 30.2697 39.001 19.5 39.001C8.73042 39.0008 0 30.2696 0 19.5C0.00017111 8.73053 8.73053 0.000178434 19.5 0ZM33.7305 12.1738C33.7305 8.14661 30.0575 9.41245 27.79 11.0479C24.6484 13.3149 21.268 17.9104 20.0273 20.377C18.7866 17.9104 15.4063 13.3149 12.2646 11.0479C9.99766 9.41246 6.32422 8.14663 6.32422 12.1738C6.32434 12.9789 6.8042 18.9298 7.08594 19.8965C8.06398 23.256 11.6289 24.1132 14.7998 23.5947C9.257 24.5012 7.8476 27.5033 10.8926 30.5059C16.6753 36.2084 19.2039 29.0764 19.8516 27.248C19.9715 26.9105 20.0273 26.7539 20.0273 26.8926C20.0273 26.7539 20.0832 26.9105 20.2031 27.248C20.8508 29.0764 23.3794 36.2084 29.1621 30.5059C32.2071 27.5033 30.7977 24.5013 25.2549 23.5947C28.4258 24.1132 31.9907 23.256 32.9688 19.8965C33.2505 18.9298 33.7304 12.979 33.7305 12.1738Z" fill="white"/>
</svg>
