<?xml version="1.0" encoding="UTF-8"?>
<svg id="Layer_1" xmlns="http://www.w3.org/2000/svg" xmlns:xlink="http://www.w3.org/1999/xlink" version="1.1" viewBox="0 0 196.7 196.7">
  <!-- Generator: Adobe Illustrator 29.8.2, SVG Export Plug-In . SVG Version: 2.1.1 Build 3)  -->
  <defs>
    <style>
      .st0 {
        fill: url(#linear-gradient1);
      }

      .st1 {
        fill: url(#linear-gradient);
      }

      .st2 {
        fill: #1c2643;
      }
    </style>
    <linearGradient id="linear-gradient" x1="31.5" y1="38.6" x2="100" y2="160" gradientUnits="userSpaceOnUse">
      <stop offset="0" stop-color="#ffa9cb"/>
      <stop offset="1" stop-color="#5cdbe1"/>
    </linearGradient>
    <linearGradient id="linear-gradient1" x1="160.2" y1="161.8" x2="92.5" y2="22.1" gradientUnits="userSpaceOnUse">
      <stop offset="0" stop-color="#ffa9cb"/>
      <stop offset=".3" stop-color="#d2b6d0"/>
      <stop offset=".8" stop-color="#7dd0dc"/>
      <stop offset="1" stop-color="#5cdbe1"/>
    </linearGradient>
  </defs>
  <rect class="st2" width="196.7" height="196.7" rx="35.8" ry="35.8"/>
  <path class="st1" d="M87.4,48c0,5.9-2.1,10.8-6.2,14.7-4.2,3.9-9.3,5.9-15.3,5.9s-11.1-2-15.2-5.9c-4.1-3.9-6.1-8.8-6.1-14.7s2-10.8,6.1-14.7c4.1-3.9,9.1-5.8,15.2-5.8s11.2,1.9,15.3,5.8c4.2,3.9,6.2,8.8,6.2,14.7ZM79.3,48.4c0-3.7-26.7-3.7-26.7,0s1.3,6.7,3.8,9.2c2.5,2.4,5.7,3.7,9.5,3.7s7-1.2,9.6-3.7c2.6-2.4,3.9-5.5,3.9-9.2ZM78.8,87.8h-25.5c-3.3,0-5.9,2.7-5.9,5.9v66.7c0,3.3,2.7,5.9,5.9,5.9h25.5c3.3,0,5.9-2.7,5.9-5.9v-66.7c0-3.3-2.7-5.9-5.9-5.9Z"/>
  <path class="st0" d="M151.4,48c0,5.9-2.1,10.8-6.2,14.7-4.2,3.9-9.3,5.9-15.3,5.9s-11.1-2-15.2-5.9c-4.1-3.9-6.1-8.8-6.1-14.7s2-10.8,6.1-14.7c4.1-3.9,9.1-5.8,15.2-5.8s11.2,1.9,15.3,5.8c4.2,3.9,6.2,8.8,6.2,14.7ZM143.3,48.4c0-3.7-26.7-3.7-26.7,0s1.3,6.7,3.8,9.2c2.5,2.4,5.7,3.7,9.5,3.7s7-1.2,9.6-3.7c2.6-2.4,3.9-5.5,3.9-9.2ZM142.8,87.8h-25.5c-3.3,0-5.9,2.7-5.9,5.9v66.7c0,3.3,2.7,5.9,5.9,5.9h25.5c3.3,0,5.9-2.7,5.9-5.9v-66.7c0-3.3-2.7-5.9-5.9-5.9Z"/>
</svg>