<svg width="39" height="39" viewBox="0 0 39 39" fill="none" xmlns="http://www.w3.org/2000/svg">
<path d="M19.5 0C30.2696 0 39.0008 8.73042 39.001 19.5C39.001 30.2697 30.2697 39.001 19.5 39.001C8.73047 39.0007 0 30.2696 0 19.5C0.000171109 8.73056 8.73057 0.000230662 19.5 0ZM13.4385 8.43164C10.0973 8.43164 7.37891 11.151 7.37891 14.4932V25.5605C7.37891 28.9027 10.0973 31.6221 13.4385 31.6221H25.5322C28.8734 31.622 31.5918 28.9027 31.5918 25.5605V14.4932C31.5918 11.151 28.8734 8.43168 25.5322 8.43164H13.4385ZM25.5322 10.5703C27.6944 10.5703 29.4541 12.3304 29.4541 14.4932V25.5605C29.4541 27.7233 27.6944 29.4834 25.5322 29.4834H13.4385C11.2763 29.4834 9.5166 27.7234 9.5166 25.5605V14.4932C9.51661 12.3304 11.2763 10.5703 13.4385 10.5703H25.5322ZM19.4854 14.3887C16.3771 14.3888 13.8498 16.9173 13.8496 20.0264C13.8496 23.1356 16.377 25.664 19.4854 25.6641C22.5924 25.6641 25.1221 23.1357 25.1221 20.0264C25.1219 16.9172 22.5936 14.3887 19.4854 14.3887ZM19.4854 16.5283C21.4147 16.5283 22.9844 18.0984 22.9844 20.0283C22.9842 21.9582 21.4146 23.5273 19.4854 23.5273C17.5561 23.5273 15.9875 21.9581 15.9873 20.0283C15.9873 18.0984 17.556 16.5284 19.4854 16.5283ZM25.6436 12.2607C24.8055 12.2607 24.125 12.942 24.125 13.7803C24.1251 14.6184 24.8056 15.2988 25.6436 15.2988C26.48 15.2987 27.162 14.6184 27.1621 13.7803C27.1621 12.9421 26.4815 12.2608 25.6436 12.2607Z" fill="white"/>
</svg>
