<svg width="39" height="39" viewBox="0 0 39 39" fill="none" xmlns="http://www.w3.org/2000/svg">
<path d="M19.5 0C30.2696 0 39 8.73045 39 19.5C39 30.2696 30.2696 39 19.5 39C8.73045 39 0 30.2696 0 19.5C0 8.73045 8.73045 0 19.5 0ZM24.7432 15.666C22.6469 15.666 21.2415 16.8162 20.666 17.9062H20.6084V16.0117H16.4746V29.877H20.7803V23.0176C20.7803 21.2093 21.1251 19.458 23.3672 19.458C25.6087 19.4584 25.6064 21.5263 25.6064 23.1338V29.876H29.9131V22.2715C29.9131 18.5386 29.1067 15.6671 24.7432 15.667V15.666ZM9.46289 16.0107V29.876H13.7715V16.0107H9.46289ZM11.6182 9.11914C10.2374 9.11914 9.1194 10.2386 9.11914 11.6162C9.11928 12.9954 10.2368 14.1152 11.6182 14.1152C12.9994 14.1151 14.1151 12.9951 14.1152 11.6162C14.115 10.2375 12.9956 9.11937 11.6182 9.11914Z" fill="white"/>
</svg>
