<?xml version="1.0" encoding="UTF-8"?>
<svg id="Layer_1" xmlns="http://www.w3.org/2000/svg" xmlns:xlink="http://www.w3.org/1999/xlink" version="1.1" viewBox="0 0 196.7 196.7">
  <!-- Generator: Adobe Illustrator 29.8.2, SVG Export Plug-In . SVG Version: 2.1.1 Build 3)  -->
  <defs>
    <style>
      .st0 {
        fill: url(#linear-gradient1);
      }

      .st1 {
        fill: url(#linear-gradient);
      }

      .st2 {
        fill: #1c2643;
        stroke: #fff;
        stroke-miterlimit: 10;
      }
    </style>
    <linearGradient id="linear-gradient" x1="31.8" y1="38.9" x2="100" y2="159.7" gradientUnits="userSpaceOnUse">
      <stop offset="0" stop-color="#ffa9cb"/>
      <stop offset="1" stop-color="#5cdbe1"/>
    </linearGradient>
    <linearGradient id="linear-gradient1" x1="159.9" y1="161.5" x2="92.5" y2="22.5" gradientUnits="userSpaceOnUse">
      <stop offset="0" stop-color="#ffa9cb"/>
      <stop offset=".3" stop-color="#d2b6d0"/>
      <stop offset=".8" stop-color="#7dd0dc"/>
      <stop offset="1" stop-color="#5cdbe1"/>
    </linearGradient>
  </defs>
  <rect class="st2" x=".5" y=".5" width="195.7" height="195.7" rx="35.8" ry="35.8"/>
  <path class="st1" d="M87.4,48.3c0,5.8-2.1,10.7-6.2,14.6-4.1,3.9-9.2,5.8-15.2,5.8s-11-1.9-15.1-5.8c-4-3.9-6.1-8.7-6.1-14.6s2-10.7,6.1-14.6c4-3.9,9.1-5.8,15.1-5.8s11.1,1.9,15.2,5.8c4.1,3.9,6.2,8.7,6.2,14.6ZM79.4,48.6c0-3.6-26.6-3.6-26.6,0s1.3,6.7,3.8,9.1c2.5,2.4,5.7,3.6,9.4,3.6s6.9-1.2,9.5-3.6c2.6-2.4,3.9-5.4,3.9-9.1ZM78.9,87.8h-25.4c-3.3,0-5.9,2.6-5.9,5.9v66.3c0,3.2,2.6,5.9,5.9,5.9h25.4c3.3,0,5.9-2.6,5.9-5.9v-66.3c0-3.3-2.6-5.9-5.9-5.9Z"/>
  <path class="st0" d="M151.1,48.3c0,5.8-2.1,10.7-6.2,14.6-4.1,3.9-9.2,5.8-15.2,5.8s-11-1.9-15.1-5.8c-4-3.9-6.1-8.7-6.1-14.6s2-10.7,6.1-14.6c4-3.9,9.1-5.8,15.1-5.8s11.1,1.9,15.2,5.8c4.1,3.9,6.2,8.7,6.2,14.6ZM143.1,48.6c0-3.6-26.6-3.6-26.6,0s1.3,6.7,3.8,9.1c2.5,2.4,5.7,3.6,9.4,3.6s6.9-1.2,9.5-3.6c2.6-2.4,3.9-5.4,3.9-9.1ZM142.6,87.8h-25.4c-3.3,0-5.9,2.6-5.9,5.9v66.3c0,3.2,2.6,5.9,5.9,5.9h25.4c3.3,0,5.9-2.6,5.9-5.9v-66.3c0-3.3-2.6-5.9-5.9-5.9Z"/>
</svg>