<?xml version="1.0" encoding="UTF-8"?>
<svg id="Layer_1" xmlns="http://www.w3.org/2000/svg" version="1.1" viewBox="0 0 514.1 163.6">
  <!-- Generator: Adobe Illustrator 30.1.0, SVG Export Plug-In . SVG Version: 2.1.1 Build 136)  -->
  <defs>
    <style>
      .st0 {
        fill: #fff;
      }
    </style>
  </defs>
  <path class="st0" d="M511.8,116.1v12c0,1.5-1,2.8-2.4,3.2-3.8,1.1-7.9,1.6-12.3,1.6-9.3,0-16.3-2.4-21.1-7.1-4.8-4.7-7.2-11.6-7.2-20.7v-43.7c0-.4-.3-.8-.8-.8h-7.2c-1.8,0-3.3-1.5-3.3-3.3v-10.7c0-1.8,1.5-3.3,3.3-3.3h7.2c.4,0,.8-.3.8-.8v-14.9c0-1.8,1.5-3.3,3.3-3.3h17.6c1.8,0,3.3,1.5,3.3,3.3v14.9c0,.4.3.8.8.8h14.4c1.8,0,3.3,1.5,3.3,3.3v10.7c0,1.8-1.5,3.3-3.3,3.3h-14.4c-.4,0-.8.3-.8.8v41.5c0,6.9,3.3,10.4,9.7,10.4s3.7-.2,5.3-.5c2-.4,3.9,1.2,3.9,3.3h0Z"/>
  <path class="st0" d="M383.7,32.6v10c0,.4.3.8.8.8h15.1c1.8,0,3.3,1.5,3.3,3.3v10.7c0,1.8-1.5,3.3-3.3,3.3h-15.1c-.4,0-.8.3-.8.8v66.4c0,1.8-1.5,3.3-3.3,3.3h-17.6c-1.8,0-3.3-1.5-3.3-3.3V61.4c0-.4-.4-.8-.8-.8h-7.5c-1.8,0-3.3-1.5-3.3-3.3v-10.7c0-1.8,1.5-3.3,3.3-3.3h7.5c.4,0,.8-.3.8-.8v-9.3c0-10.1,2.7-17.7,8.2-22.9,5.5-5.2,13.2-7.8,23.2-7.8s7,.3,10,1c1.5.3,2.6,1.7,2.6,3.2v11.4c0,2.1-1.9,3.6-3.9,3.2-1.6-.3-3.3-.4-5-.4-7.3,0-10.9,3.9-10.9,11.6h0Z"/>
  <path class="st0" d="M345.5,80.4v12.7c0,2-1.7,3.7-3.7,3.7h-27.5c-2,0-3.7-1.7-3.7-3.7v-12.7c0-2,1.7-3.7,3.7-3.7h27.5c2,0,3.7,1.7,3.7,3.7Z"/>
  <path class="st0" d="M293.2,43.3h-17.6c-1.8,0-3.3,1.5-3.3,3.3v7c0,.8-1,1.1-1.4.4-5.6-8.5-14.4-12.7-26.3-12.7s-20.6,4.1-27.8,12.3-10.8,19.4-10.8,33.5v1.3c0,14.1,3.6,25.1,10.8,32.8,7.2,7.8,16.3,11.7,27.4,11.7s11.8-1.5,16.9-4.6c4.2-2.5,7.5-5.5,9.9-9,.4-.6,1.4-.3,1.4.4v37.9c0,1.8,1.5,3.3,3.3,3.3h17.6c1.8,0,3.3-1.5,3.3-3.3V46.7c0-1.8-1.5-3.3-3.3-3.3h0ZM273,87.7c0,8.6-1.9,15.2-5.9,19.7-3.9,4.5-9.2,6.7-15.8,6.7s-11.2-2.2-14.9-6.6-5.5-10.9-5.5-19.4v-1.3c0-8.7,1.8-15.4,5.5-19.9,3.6-4.5,8.9-6.8,15.7-6.8s11.9,2.2,15.5,6.7,5.4,11,5.4,19.6v1.3Z"/>
  <path class="st0" d="M143.2,75.3v52.6c0,1.8-1.5,3.3-3.3,3.3h-17.7c-1.8,0-3.3-1.5-3.3-3.3v-49.1c0-6-1.2-10.5-3.7-13.3-2.5-2.9-6.4-4.3-11.7-4.3s-9.9,1.7-13.3,5-5,8.1-5,14.4v47.4c0,1.8-1.5,3.3-3.3,3.3h-17.7c-1.8,0-3.3-1.5-3.3-3.3v-7.6c0-.7-1-1-1.4-.4-5.4,8.7-14.3,13.1-26.4,13.1s-16.3-2.7-21.8-8.2c-5.4-5.5-8.1-13.8-8.1-24.9v-53.3c0-1.8,1.5-3.3,3.3-3.3h17.6c1.8,0,3.3,1.5,3.3,3.3v49.9c0,11.8,5.1,17.6,15.3,17.6s9.8-1.6,13.2-4.9c3.3-3.2,5-7.9,5.1-14v-49.2c.3-1.5,1.6-2.6,3.2-2.6h17.7c.3,0,.7,0,1,.2h.2c1.2.5,2.1,1.7,2.1,3.1v7.7c0,.8,1,1.1,1.4.4,2.3-3.6,5.4-6.6,9.4-9,4.9-3,10.8-4.4,17.7-4.4s16.2,2.8,21.6,8.5c5.3,5.7,8,14.1,8,25.4h-.1Z"/>
  <path class="st0" d="M440.3,45.1c-2.7-2.5-6-3.8-9.9-3.8s-7.2,1.3-9.8,3.8c-2.6,2.5-3.9,5.7-3.9,9.5s1.3,7,3.9,9.5,5.9,3.8,9.8,3.8,7.2-1.2,9.9-3.8c2.7-2.5,4-5.7,4-9.5s-1.3-7-4-9.5ZM436.6,60.8c-1.7,1.6-3.7,2.4-6.2,2.4s-4.5-.8-6.1-2.4c-1.6-1.6-2.5-3.5-2.5-5.9s17.3-2.4,17.3,0-.8,4.4-2.5,5.9h0Z"/>
  <rect class="st0" x="418.5" y="80.3" width="24.2" height="50.8" rx="3.8" ry="3.8"/>
  <path class="st0" d="M186.5,45.1c-2.7-2.5-6-3.8-9.9-3.8s-7.2,1.2-9.8,3.8c-2.6,2.5-3.9,5.7-3.9,9.5s1.3,7,3.9,9.5c2.6,2.5,5.9,3.8,9.8,3.8s7.2-1.3,9.9-3.8,4-5.7,4-9.5-1.3-7-4-9.5ZM182.8,60.8c-1.7,1.6-3.7,2.4-6.2,2.4s-4.5-.8-6.1-2.4c-1.7-1.6-2.5-3.5-2.5-5.9s17.3-2.4,17.3,0-.8,4.4-2.5,5.9Z"/>
  <rect class="st0" x="164.7" y="80.3" width="24.2" height="50.8" rx="3.8" ry="3.8"/>
</svg>