<svg width="39" height="39" viewBox="0 0 39 39" fill="none" xmlns="http://www.w3.org/2000/svg">
<path d="M19.5 0C30.2696 0 39.0008 8.73042 39.001 19.5C39.001 30.2697 30.2697 39.001 19.5 39.001C8.73036 39.0009 0 30.2697 0 19.5C0.000171112 8.73048 8.73047 0.000106691 19.5 0ZM24.0654 7.37793L20.082 7.37891V24.5645C20.0819 26.8164 18.4885 28.2646 16.5508 28.2646C14.6131 28.2646 12.8908 26.8164 12.8906 24.5645C12.8906 21.9625 14.8936 20.5886 17.5635 20.873V16.5176C17.176 16.4517 16.788 16.4307 16.4648 16.4307C12.0938 16.4307 8.43262 19.9947 8.43262 24.4111C8.43279 29.0902 12.0505 32.6758 16.4863 32.6758C20.3836 32.6756 24.5176 29.7671 24.5176 24.2793V15.3369C26.2401 17.086 28.3291 17.6328 30.5684 17.6328V13.6094C27.8124 13.4123 24.7544 11.5757 24.0654 7.37793Z" fill="white"/>
</svg>
